<?xml version="1.0" encoding="UTF-8"?>
<svg id="a" data-name="Layer 1" xmlns="http://www.w3.org/2000/svg" viewBox="0 0 2396.49 2327.16">
  <path d="M762.52,188.69l108.93,62.9v251.59l-326.79,188.7v-377.39l217.86-125.79ZM2396.49,754.76l-326.79-188.69-653.59,377.38v503.18l-217.86,125.79v-880.55l-217.86-125.8,217.86-125.8v-251.59L871.45,0,217.86,377.38v503.18L0,1006.35l108.93,62.9,108.93-62.9v628.97l217.86,125.79,217.86-125.79-108.93-62.9v-754.76l217.86-125.79,108.93,62.9v880.55l217.86,125.79,326.79-188.69v628.95l217.86,125.79,217.87-125.79-108.93-62.9v-754.74l435.73-251.59-108.93-62.9-326.79,188.69v-377.38l217.86-125.79,217.87,125.79,217.86-125.79Z"/>
</svg>